<svg width="40" height="40" viewBox="0 0 40 40" fill="none" xmlns="http://www.w3.org/2000/svg">
    <defs>
        <linearGradient id="bookGradient" x1="0%" y1="0%" x2="100%" y2="100%">
            <stop offset="0%" stopColor="#26d0ce" />
            <stop offset="100%" stopColor="#1a2980" />
        </linearGradient>
    </defs>
    <!-- Open Book Shape -->
    <path
        d="M8 12 L20 10 L32 12 L32 30 L20 28 L8 30 Z"
        fill="url(#bookGradient)"
        opacity="0.9"
    />
    <!-- Book Pages - Left -->
    <path
        d="M8 12 L20 10 L20 28 L8 30 Z"
        fill="white"
        opacity="0.95"
        stroke="#26d0ce"
        strokeWidth="1"
    />
    <!-- Book Pages - Right -->
    <path
        d="M20 10 L32 12 L32 30 L20 28 Z"
        fill="white"
        opacity="0.95"
        stroke="#26d0ce"
        strokeWidth="1"
    />
    <!-- Center Binding -->
    <line x1="20" y1="10" x2="20" y2="28" stroke="#26d0ce" strokeWidth="2" />
    <!-- Page Lines - Left -->
    <line x1="10" y1="16" x2="18" y2="15.5" stroke="#26d0ce" strokeWidth="0.5" opacity="0.6" />
    <line x1="10" y1="19" x2="18" y2="18.5" stroke="#26d0ce" strokeWidth="0.5" opacity="0.6" />
    <line x1="10" y1="22" x2="18" y2="21.5" stroke="#26d0ce" strokeWidth="0.5" opacity="0.6" />
    <!-- Page Lines - Right -->
    <line x1="22" y1="15.5" x2="30" y2="16" stroke="#26d0ce" strokeWidth="0.5" opacity="0.6" />
    <line x1="22" y1="18.5" x2="30" y2="19" stroke="#26d0ce" strokeWidth="0.5" opacity="0.6" />
    <line x1="22" y1="21.5" x2="30" y2="22" stroke="#26d0ce" strokeWidth="0.5" opacity="0.6" />
</svg>